<svg xmlns="http://www.w3.org/2000/svg" width="760" height="560" viewBox="0 0 760 560" role="img" aria-labelledby="t d">
  <title id="t">How a VIPER scan works</title>
  <desc id="d">Scope is checked, the target is scanned by the VIPER engine, findings are saved and read from the database, then shown on the dashboard and exported as a PoC report.</desc>
  <defs>
    <style>
      .ic{fill:#fff;stroke:#ef2331;stroke-width:2.4;stroke-linecap:round;stroke-linejoin:round}
      .lbl{fill:#12161d;font:700 13px Inter,Segoe UI,Arial,sans-serif;text-anchor:middle;letter-spacing:.4px}
      .al{fill:#2b3140;font:600 12px Inter,Segoe UI,Arial,sans-serif;letter-spacing:.3px}
      .alc{fill:#2b3140;font:600 12px Inter,Segoe UI,Arial,sans-serif;text-anchor:middle;letter-spacing:.3px}
      .flow{fill:none;stroke:#333a45;stroke-width:1.8}
    </style>
    <marker id="ah" markerWidth="9" markerHeight="9" refX="7.5" refY="4.5" orient="auto"><path d="M0 0 9 4.5 0 9Z" fill="#333a45"/></marker>
  </defs>
  <rect width="760" height="560" fill="#ffffff"/>

  <!-- ===== arrows ===== -->
  <g class="flow" marker-end="url(#ah)">
    <path d="M110 114 V256"/>                         <!-- in-scope -> target -->
    <path d="M172 296 H300"/>                          <!-- target -> engine (1) -->
    <path d="M380 240 V130"/>                          <!-- engine -> dashboard (4), stops below label -->
    <path d="M442 262 H596"/>                          <!-- engine -> db (2) -->
    <path d="M596 292 H464"/>                          <!-- db -> engine (3) -->
    <path d="M380 340 V430"/>                          <!-- engine -> report (5), starts below label -->
  </g>

  <!-- arrow labels -->
  <text x="120" y="192" class="al">CHECK SCOPE</text>
  <text x="246" y="284" class="alc">1. SCAN IN SCOPE</text>
  <text x="392" y="182" class="al">4. SHOW FINDINGS</text>
  <text x="519" y="252" class="alc">2. SAVE FINDINGS</text>
  <text x="519" y="312" class="alc">3. READ FINDINGS</text>
  <text x="392" y="388" class="al">5. EXPORT PoC</text>

  <!-- ===== IN SCOPE (shield) ===== -->
  <g transform="translate(110 72)">
    <path class="ic" d="M0 -22 L18 -14 V0 C18 14 10 20 0 24 C-10 20 -18 14 -18 0 V-14 Z"/>
    <path class="ic" d="M-7 -1 L-2 5 L9 -8"/>
  </g>
  <text x="110" y="112" class="lbl">IN SCOPE</text>

  <!-- ===== TARGET (laptop) ===== -->
  <g transform="translate(110 292)">
    <rect class="ic" x="-26" y="-20" width="52" height="34" rx="3"/>
    <path class="ic" d="M-34 22 L-30 14 H30 L34 22 Z"/>
  </g>
  <text x="110" y="336" class="lbl">TARGET</text>

  <!-- ===== VIPER ENGINE (cloud) ===== -->
  <g transform="translate(380 278)">
    <path class="ic" d="M-30 20 C-46 20 -49 2 -35 -3 C-40 -22 -16 -30 -8 -16 C-2 -33 28 -31 30 -12 C48 -16 52 8 36 15 C33 20 -18 20 -30 20 Z"/>
  </g>
  <text x="380" y="322" class="lbl">VIPER ENGINE</text>

  <!-- ===== DASHBOARD (monitor) ===== -->
  <g transform="translate(380 66)">
    <rect class="ic" x="-28" y="-20" width="56" height="36" rx="3"/>
    <path class="ic" d="M0 16 V24 M-11 24 H11"/>
    <path class="ic" d="M-16 6 V-4 M-6 6 V-12 M4 6 V-7 M14 6 V-14"/>
  </g>
  <text x="380" y="112" class="lbl">DASHBOARD</text>

  <!-- ===== DATABASE (cylinder) ===== -->
  <g transform="translate(650 278)">
    <path class="ic" d="M-26 -24 V24 C-26 31 26 31 26 24 V-24"/>
    <ellipse class="ic" cx="0" cy="-24" rx="26" ry="8"/>
    <path class="ic" d="M-26 -8 C-26 -1 26 -1 26 -8"/>
    <path class="ic" d="M-26 8 C-26 15 26 15 26 8"/>
  </g>
  <text x="650" y="322" class="lbl">DATABASE</text>

  <!-- ===== REPORT / PoC (document) ===== -->
  <g transform="translate(380 476)">
    <path class="ic" d="M-20 -26 H10 L22 -14 V26 H-20 Z"/>
    <path class="ic" d="M10 -26 V-14 H22"/>
    <path class="ic" d="M-12 -2 H14 M-12 8 H14 M-12 18 H6"/>
  </g>
  <text x="380" y="524" class="lbl">REPORT · PoC</text>
</svg>
